<svg width="11" height="14" viewBox="0 0 11 14" fill="none" xmlns="http://www.w3.org/2000/svg">
<path d="M2.25 13V11.5H1.5C1.2875 11.5 1.1095 11.428 0.966 11.284C0.8225 11.14 0.7505 10.962 0.75 10.75C0.75 10.5375 0.822 10.3595 0.966 10.216C1.11 10.0725 1.288 10.0005 1.5 10H2.25V1C2.25 0.7875 2.322 0.6095 2.466 0.466C2.61 0.3225 2.788 0.2505 3 0.25H9.75C9.9625 0.25 10.1407 0.322 10.2847 0.466C10.4288 0.61 10.5005 0.788 10.5 1C10.5 1.2125 10.428 1.39075 10.284 1.53475C10.14 1.67875 9.962 1.7505 9.75 1.75H3.75V6.25H9C9.2125 6.25 9.39075 6.322 9.53475 6.466C9.67875 6.61 9.7505 6.788 9.75 7C9.75 7.2125 9.678 7.39075 9.534 7.53475C9.39 7.67875 9.212 7.7505 9 7.75H3.75V10H6C6.2125 10 6.39075 10.072 6.53475 10.216C6.67875 10.36 6.7505 10.538 6.75 10.75C6.75 10.9625 6.678 11.1408 6.534 11.2848C6.39 11.4288 6.212 11.5005 6 11.5H3.75V13C3.75 13.2125 3.678 13.3908 3.534 13.5348C3.39 13.6788 3.212 13.7505 3 13.75C2.7875 13.75 2.6095 13.678 2.466 13.534C2.3225 13.39 2.2505 13.212 2.25 13Z" fill="#CCAF7E"/>
</svg>
